<svg xmlns="http://www.w3.org/2000/svg" width="600" height="400" viewBox="0 0 600 400" role="img">
  <defs>
    <pattern id="brick" width="34" height="16" patternUnits="userSpaceOnUse">
      <rect width="34" height="16" fill="none"/>
      <path d="M0 15.5H34M17 0V15.5M0 7.5H34M8.5 0V7.5" stroke="#000" stroke-opacity="0.16" stroke-width="1.4"/>
    </pattern>
    <pattern id="board" width="18" height="60" patternUnits="userSpaceOnUse">
      <rect width="18" height="60" fill="none"/>
      <path d="M17.4 0V60" stroke="#000" stroke-opacity="0.1" stroke-width="1.6"/>
    </pattern>
    <pattern id="panel" width="80" height="80" patternUnits="userSpaceOnUse">
      <rect width="80" height="80" fill="none"/>
      <path d="M0 79.5H80M79.5 0V80" stroke="#000" stroke-opacity="0.07" stroke-width="1.4"/>
    </pattern>
    <linearGradient id="skyG" x1="0" y1="0" x2="0" y2="1">
      <stop offset="0%" stop-color="var(--sky-top)"/>
      <stop offset="100%" stop-color="var(--sky-bottom)"/>
    </linearGradient>
    <radialGradient id="lampGlow">
      <stop offset="0%" stop-color="#FFD68A" stop-opacity="0.55"/>
      <stop offset="100%" stop-color="#FFD68A" stop-opacity="0"/>
    </radialGradient>
  </defs>
  <rect width="600" height="400" fill="#DDDBD4"/>
  
  <rect x="0" y="0" width="600" height="46" fill="#5A6560" opacity="0.55"/>
  <rect x="330" y="46" width="270" height="354" fill="#C6C4BC"/>
  
  <g>
    <rect x="52" y="116" width="158" height="178" fill="#C6C4BC"/>
    <rect x="56" y="120" width="150" height="170" fill="#8497A0"/>
    
    <rect x="56" y="120" width="150" height="170" fill="none" stroke="#3F4A45" stroke-width="5"/>
    <rect x="86.0" y="123" width="2.4" height="164" fill="#3F4A45" opacity="0.85"/><rect x="116.0" y="123" width="2.4" height="164" fill="#3F4A45" opacity="0.85"/><rect x="146.0" y="123" width="2.4" height="164" fill="#3F4A45" opacity="0.85"/><rect x="176.0" y="123" width="2.4" height="164" fill="#3F4A45" opacity="0.85"/><rect x="59" y="204" width="144" height="2.4" fill="#3F4A45" opacity="0.85"/>
  </g>
  <rect x="354" y="88" width="4" height="244" fill="#5A6560" opacity="0.65"/><rect x="367" y="88" width="4" height="244" fill="#5A6560" opacity="0.65"/><rect x="380" y="88" width="4" height="244" fill="#5A6560" opacity="0.65"/><rect x="393" y="88" width="4" height="244" fill="#5A6560" opacity="0.65"/><rect x="406" y="88" width="4" height="244" fill="#5A6560" opacity="0.65"/><rect x="419" y="88" width="4" height="244" fill="#5A6560" opacity="0.65"/><rect x="432" y="88" width="4" height="244" fill="#5A6560" opacity="0.65"/><rect x="445" y="88" width="4" height="244" fill="#5A6560" opacity="0.65"/><rect x="458" y="88" width="4" height="244" fill="#5A6560" opacity="0.65"/><rect x="471" y="88" width="4" height="244" fill="#5A6560" opacity="0.65"/><rect x="484" y="88" width="4" height="244" fill="#5A6560" opacity="0.65"/><rect x="497" y="88" width="4" height="244" fill="#5A6560" opacity="0.65"/><rect x="510" y="88" width="4" height="244" fill="#5A6560" opacity="0.65"/><rect x="523" y="88" width="4" height="244" fill="#5A6560" opacity="0.65"/><rect x="536" y="88" width="4" height="244" fill="#5A6560" opacity="0.65"/><rect x="549" y="88" width="4" height="244" fill="#5A6560" opacity="0.65"/><rect x="562" y="88" width="4" height="244" fill="#5A6560" opacity="0.65"/>
  <rect y="374" width="600" height="26" fill="#22262B" opacity="0.85"/>
</svg>